<?xml version="1.0" encoding="UTF-8"?>
<svg width="24px" height="33px" viewBox="0 0 24 33" version="1.1" xmlns="http://www.w3.org/2000/svg" xmlns:xlink="http://www.w3.org/1999/xlink">
    <!-- Generator: Sketch 55.1 (78136) - https://sketchapp.com -->
    <title>icon_main</title>
    <desc>Created with Sketch.</desc>
    <defs>
        <rect id="path-1" x="6" y="-1.0658141e-14" width="12" height="12" rx="1.5"></rect>
        <filter x="-29.2%" y="-20.8%" width="158.3%" height="158.3%" filterUnits="objectBoundingBox" id="filter-2">
            <feOffset dx="0" dy="1" in="SourceAlpha" result="shadowOffsetOuter1"></feOffset>
            <feGaussianBlur stdDeviation="1" in="shadowOffsetOuter1" result="shadowBlurOuter1"></feGaussianBlur>
            <feColorMatrix values="0 0 0 0 0.67408288   0 0 0 0 0.244618927   0 0 0 0 0.135548716  0 0 0 0.25 0" type="matrix" in="shadowBlurOuter1"></feColorMatrix>
        </filter>
    </defs>
    <g id="Page-1" stroke="none" stroke-width="1" fill="none" fill-rule="evenodd">
        <g id="Start-Copy-2" transform="translate(-104.000000, -65.000000)">
            <g id="LOGO-Copy-12" transform="translate(104.000000, 66.000000)">
                <g id="icon_main">
                    <path d="M23.7998241,15.5996482 C23.2984579,15.2231147 22.6752846,15 22,15 L2,15 C1.32471543,15 0.701542095,15.2231147 0.200175921,15.5996482 L2,12 L3.4472136,9.10557281 C3.78599762,8.42800475 4.47852386,8 5.23606798,8 L18.763932,8 C19.5214761,8 20.2140024,8.42800475 20.5527864,9.10557281 L22,12 L23.7998241,15.5996482 Z M19.6583592,9.5527864 C19.4889672,9.21400238 19.1427041,9 18.763932,9 L5.23606798,9 C4.85729592,9 4.5110328,9.21400238 4.34164079,9.5527864 L1.61803399,15 L22.381966,15 L19.6583592,9.5527864 Z" id="Combined-Shape-Copy-11" fill="#FF4212" fill-rule="nonzero"></path>
                    <g id="Rectangle-Copy-35">
                        <use fill="black" fill-opacity="1" filter="url(#filter-2)" xlink:href="#path-1"></use>
                        <use fill="#FF4212" fill-rule="evenodd" xlink:href="#path-1"></use>
                    </g>
                    <path d="M10.0608337,5.75510568 C9.82592108,5.547567 9.4672434,5.569758 9.25970472,5.80467066 C9.05216604,6.03958333 9.07435704,6.39826101 9.30926971,6.60579968 L11.4089249,8.4607855 L14.9558188,4.83156566 C15.1749103,4.60738895 15.1707878,4.2480491 14.9466111,4.02895765 C14.7224344,3.80986621 14.3630946,3.81398863 14.1440031,4.03816535 L11.3515586,6.89542448 L10.0608337,5.75510568 Z" id="Path-2-Copy-3" fill="#FFFFFF" fill-rule="nonzero"></path>
                    <rect id="Rectangle-Copy-9" fill="#FF4212" x="0" y="16" width="24" height="16" rx="2"></rect>
                </g>
            </g>
        </g>
    </g>
</svg>