<?xml version="1.0" encoding="UTF-8"?>
<svg width="20px" height="19px" viewBox="0 0 20 19" version="1.1" xmlns="http://www.w3.org/2000/svg" xmlns:xlink="http://www.w3.org/1999/xlink">
    <!-- Generator: Sketch 55.1 (78136) - https://sketchapp.com -->
    <title>icon_vote</title>
    <desc>Created with Sketch.</desc>
    <g id="Page-1" stroke="none" stroke-width="1" fill="none" fill-rule="evenodd">
        <g id="icon_vote" transform="translate(10.000000, 10.000000) rotate(20.000000) translate(-10.000000, -10.000000) translate(2.000000, 2.000000)" fill="#ffffff" fill-rule="nonzero">
            <path d="M14.5,9.25 L14.5,1.5 L1.5,1.5 L1.5,14.5 L9.25,14.5 L9.25,10 C9.25,9.58578644 9.58578644,9.25 10,9.25 L14.5,9.25 Z M13.1286797,10.75 L10.75,10.75 L10.75,13.1286797 L13.1286797,10.75 Z M1,0 L15,0 C15.5522847,0 16,0.44771525 16,1 L16,10 L10,16 L1,16 C0.44771525,16 0,15.5522847 0,15 L0,1 C0,0.44771525 0.44771525,0 1,0 Z" id="Combined-Shape"></path>
            <path d="M6.03033009,6.96966991 C5.73743687,6.6767767 5.26256313,6.6767767 4.96966991,6.96966991 C4.6767767,7.26256313 4.6767767,7.73743687 4.96966991,8.03033009 L7,10.0606602 L10.5303301,6.53033009 C10.8232233,6.23743687 10.8232233,5.76256313 10.5303301,5.46966991 C10.2374369,5.1767767 9.76256313,5.1767767 9.46966991,5.46966991 L7,7.93933983 L6.03033009,6.96966991 Z" id="Path-15-Copy"></path>
        </g>
    </g>
</svg>