<?xml version="1.0" encoding="UTF-8"?>
<svg width="20px" height="19px" viewBox="0 0 20 19" version="1.1" xmlns="http://www.w3.org/2000/svg" xmlns:xlink="http://www.w3.org/1999/xlink">
    <!-- Generator: Sketch 55.1 (78136) - https://sketchapp.com -->
    <title>icon_warn</title>
    <desc>Created with Sketch.</desc>
    <g id="Page-1" stroke="none" stroke-width="1" fill="none" fill-rule="evenodd">
        <g id="Vote-1-Copy-2" transform="translate(-326.000000, -889.000000)" fill="#85929B" fill-rule="nonzero">
            <g id="icon_warn" transform="translate(326.000000, 889.035596)">
                <path d="M10.0089686,12.6121076 C9.46008969,12.6121076 9,13.0721973 9,13.6210762 C9,14.1699552 9.46008969,14.6300448 10.0089686,14.6300448 C10.5376682,14.6300448 11.0179372,14.1699552 10.993722,13.6452915 C11.0179372,13.0681614 10.5618834,12.6121076 10.0089686,12.6121076 Z" id="Path-Copy"></path>
                <path d="M19.5133129,16.2352148 C20.1587882,15.1382955 20.1628995,13.8308972 19.5215355,12.7380256 L13.083228,1.76073758 C12.4459753,0.655722959 11.2948092,0 10.0038586,0 C8.71290807,0 7.56174197,0.659770632 6.92448931,1.7566899 L0.477959138,12.746121 C-0.163404833,13.8511356 -0.159293526,15.1666292 0.49029306,16.2635485 C1.13165703,17.3483247 2.27871183,18 3.56143977,18 L16.4216096,18 C17.7084489,18 18.8637263,17.3402294 19.5133129,16.2352148 Z M18.1154683,15.4418709 C17.7577846,16.0490218 17.1246432,16.4092647 16.4174983,16.4092647 L3.55732846,16.4092647 C2.85840618,16.4092647 2.22937614,16.0571172 1.879915,15.4621093 C1.52634255,14.8590061 1.52223124,14.1385204 1.87580369,13.5313695 L8.32233386,2.54598606 C8.671795,1.94288284 9.29671374,1.58668765 10.0038586,1.58668765 C10.7068922,1.58668765 11.3359223,1.94693051 11.6853834,2.55003373 L18.1278023,13.5354171 C18.4731521,14.1263773 18.4690408,14.8387677 18.1154683,15.4418709 Z" id="Shape-Copy"></path>
                <path d="M9.77892377,5.52914798 C9.29865471,5.66636771 9,6.10224215 9,6.6309417 C9.02421525,6.94977578 9.04439462,7.27264574 9.06860987,7.59147982 C9.13721973,8.80627803 9.2058296,9.99686099 9.27443946,11.2116592 C9.29865471,11.6233184 9.61748879,11.9219731 10.029148,11.9219731 C10.4408072,11.9219731 10.7636771,11.603139 10.7838565,11.1874439 C10.7838565,10.9372197 10.7838565,10.7071749 10.8080717,10.4529148 C10.8524664,9.67399103 10.9008969,8.89506726 10.9452915,8.1161435 C10.9695067,7.61165919 11.0139013,7.10717489 11.0381166,6.60269058 C11.0381166,6.42107623 11.0139013,6.25964126 10.9452915,6.09820628 C10.7394619,5.64618834 10.2591928,5.4161435 9.77892377,5.52914798 Z" id="Path-Copy-2"></path>
            </g>
        </g>
    </g>
</svg>